<?xml version="1.0" encoding="UTF-8" standalone="no"?>
<svg viewBox="0 0 512 512" version="1.1" id="svg69" sodipodi:docname="branch.svg" inkscape:version="1.1.2 (b8e25be8, 2022-02-05)"
   xmlns:inkscape="http://www.inkscape.org/namespaces/inkscape"
   xmlns:sodipodi="http://sodipodi.sourceforge.net/DTD/sodipodi-0.dtd"
   xmlns="http://www.w3.org/2000/svg"
   xmlns:svg="http://www.w3.org/2000/svg">
   <defs id="defs73" />
   <sodipodi:namedview id="namedview71" pagecolor="#ffffff" bordercolor="#666666" borderopacity="1.0" inkscape:pageshadow="2" inkscape:pageopacity="0.0" inkscape:pagecheckerboard="0" showgrid="false" inkscape:zoom="0.98458945" inkscape:cx="136.09734" inkscape:cy="152.85559" inkscape:window-width="1701" inkscape:window-height="1081" inkscape:window-x="0" inkscape:window-y="25" inkscape:window-maximized="0" inkscape:current-layer="svg69" />
   <title id="title2">ionicons-v5-d</title>
   <g id="g723" transform="translate(8.4097947,1.9060994)">
      <rect id="rect195" width="461.77341" height="31.901321" x="23.671227" y="-194.10741" style="stroke-width:1.07017" transform="matrix(5.5363444e-4,0.99999985,-0.99999661,0.0026044,0,0)" />
      <rect id="rect195-0" width="461.77341" height="31.901321" x="24.032162" y="-332.69394" style="stroke-width:1.07017" transform="matrix(5.5363444e-4,0.99999985,-0.99999661,0.0026044,0,0)" />
   </g>
   <g id="g767" transform="translate(-1.604434e-6,0.56358863)">
      <rect id="rect195-0-9" width="146.02625" height="31.901295" x="-328.98059" y="-94.59211" style="stroke-width:0.601802" transform="matrix(-0.99999744,-0.00226351,-4.2215907e-4,-0.99999991,0,0)" />
      <rect id="rect195-0-9-4" width="146.02625" height="31.901295" x="-328.93097" y="-212.06927" style="stroke-width:0.601802" transform="matrix(-0.99999744,-0.00226351,-4.2215907e-4,-0.99999991,0,0)" />
      <rect id="rect195-0-9-2" width="146.02625" height="31.901295" x="-328.88141" y="-329.54645" style="stroke-width:0.601802" transform="matrix(-0.99999744,-0.00226351,-4.2215907e-4,-0.99999991,0,0)" />
      <rect id="rect195-0-9-0" width="146.02625" height="31.901295" x="-328.83179" y="-447.02362" style="stroke-width:0.601802" transform="matrix(-0.99999744,-0.00226351,-4.2215907e-4,-0.99999991,0,0)" />
   </g>
</svg>
